<svg width="1920" height="1080" xmlns="http://www.w3.org/2000/svg">
  <defs>
    <radialGradient id="bg" cx="30%" cy="30%" r="80%">
      <stop offset="0%" stop-color="#1a0533"/>
      <stop offset="50%" stop-color="#0d0b1a"/>
      <stop offset="100%" stop-color="#050408"/>
    </radialGradient>
    <radialGradient id="orb1" cx="50%" cy="50%" r="50%">
      <stop offset="0%" stop-color="#7c3aed" stop-opacity="0.5"/>
      <stop offset="100%" stop-color="#7c3aed" stop-opacity="0"/>
    </radialGradient>
    <radialGradient id="orb2" cx="50%" cy="50%" r="50%">
      <stop offset="0%" stop-color="#4f46e5" stop-opacity="0.3"/>
      <stop offset="100%" stop-color="#4f46e5" stop-opacity="0"/>
    </radialGradient>
    <filter id="blur1"><feGaussianBlur stdDeviation="80"/></filter>
    <filter id="blur2"><feGaussianBlur stdDeviation="60"/></filter>
  </defs>
  <rect width="1920" height="1080" fill="url(#bg)"/>
  <!-- Glow orbs -->
  <ellipse cx="320" cy="280" rx="400" ry="350" fill="url(#orb1)" filter="url(#blur1)"/>
  <ellipse cx="1600" cy="750" rx="350" ry="300" fill="url(#orb2)" filter="url(#blur2)"/>
  <ellipse cx="960" cy="900" rx="250" ry="200" fill="#22d3ee" opacity="0.04" filter="url(#blur1)"/>
  <!-- Stars -->
  <circle cx="1309" cy="228" r="0.5425182838785338" fill="white" opacity="0.48"/>
<circle cx="457" cy="285" r="1.7520010640788213" fill="white" opacity="0.74"/>
<circle cx="1827" cy="178" r="1.5038372711633676" fill="white" opacity="0.32"/>
<circle cx="191" cy="447" r="0.8955235187642574" fill="white" opacity="0.69"/>
<circle cx="1149" cy="407" r="1.717233341968086" fill="white" opacity="0.76"/>
<circle cx="859" cy="451" r="1.263655378682551" fill="white" opacity="0.48"/>
<circle cx="1780" cy="13" r="1.7899725241206046" fill="white" opacity="0.40"/>
<circle cx="865" cy="696" r="0.9723812808417912" fill="white" opacity="0.44"/>
<circle cx="1563" cy="689" r="0.6737574700837428" fill="white" opacity="0.55"/>
<circle cx="735" cy="704" r="1.526334253323715" fill="white" opacity="0.82"/>
<circle cx="1494" cy="940" r="1.4115877554729912" fill="white" opacity="0.93"/>
<circle cx="775" cy="161" r="1.438469073164486" fill="white" opacity="0.84"/>
<circle cx="1266" cy="740" r="1.4814986469364957" fill="white" opacity="0.76"/>
<circle cx="93" cy="466" r="1.8142161793407763" fill="white" opacity="0.94"/>
<circle cx="1751" cy="476" r="1.9730222334839587" fill="white" opacity="0.55"/>
<circle cx="928" cy="747" r="0.7765119651653443" fill="white" opacity="0.53"/>
<circle cx="1372" cy="546" r="1.6930945328795375" fill="white" opacity="0.74"/>
<circle cx="146" cy="350" r="1.4080377909505037" fill="white" opacity="0.46"/>
<circle cx="946" cy="777" r="0.9589113055332725" fill="white" opacity="0.90"/>
<circle cx="1409" cy="449" r="1.6638442266827869" fill="white" opacity="0.85"/>
<circle cx="1589" cy="114" r="0.8893817223389775" fill="white" opacity="0.32"/>
<circle cx="646" cy="821" r="0.9551594891586948" fill="white" opacity="0.44"/>
<circle cx="1161" cy="644" r="0.8614651248920391" fill="white" opacity="0.62"/>
<circle cx="1811" cy="939" r="0.7428817037515065" fill="white" opacity="0.39"/>
<circle cx="1525" cy="538" r="1.7699234798088386" fill="white" opacity="0.58"/>
<circle cx="1195" cy="817" r="1.1153939543131388" fill="white" opacity="0.95"/>
<circle cx="283" cy="1043" r="1.3389769193123728" fill="white" opacity="0.79"/>
<circle cx="1763" cy="224" r="0.7598302428920438" fill="white" opacity="0.40"/>
<circle cx="1393" cy="864" r="1.5138953522443557" fill="white" opacity="0.55"/>
<circle cx="1220" cy="958" r="1.399494386668533" fill="white" opacity="0.93"/>
<circle cx="1762" cy="23" r="1.6564817974360815" fill="white" opacity="0.37"/>
<circle cx="1812" cy="546" r="1.8066178455176582" fill="white" opacity="0.52"/>
<circle cx="601" cy="890" r="0.7688681823859386" fill="white" opacity="0.30"/>
<circle cx="1478" cy="539" r="2.1522097680791945" fill="white" opacity="0.80"/>
<circle cx="1039" cy="217" r="1.979881568722504" fill="white" opacity="0.49"/>
<circle cx="1308" cy="1039" r="1.535249359444893" fill="white" opacity="0.40"/>
<circle cx="1561" cy="330" r="1.4169443512033637" fill="white" opacity="0.81"/>
<circle cx="1086" cy="1" r="1.5182057935823894" fill="white" opacity="0.62"/>
<circle cx="229" cy="743" r="1.9938271922994133" fill="white" opacity="0.84"/>
<circle cx="629" cy="490" r="0.5984727830401189" fill="white" opacity="0.87"/>
<circle cx="161" cy="175" r="1.7442429112358673" fill="white" opacity="0.83"/>
<circle cx="1557" cy="257" r="0.7182654896495968" fill="white" opacity="0.61"/>
<circle cx="1125" cy="338" r="0.9505962691981005" fill="white" opacity="0.87"/>
<circle cx="866" cy="433" r="2.079152938103701" fill="white" opacity="0.79"/>
<circle cx="1412" cy="411" r="1.7120132537925072" fill="white" opacity="0.56"/>
<circle cx="1375" cy="764" r="1.244770142654657" fill="white" opacity="0.64"/>
<circle cx="247" cy="507" r="0.8819854729536476" fill="white" opacity="0.52"/>
<circle cx="1204" cy="471" r="1.500348194497597" fill="white" opacity="0.30"/>
<circle cx="1449" cy="120" r="0.8892010324789625" fill="white" opacity="0.89"/>
<circle cx="1760" cy="676" r="0.6204574948107109" fill="white" opacity="0.45"/>
<circle cx="1370" cy="994" r="0.8642025725297456" fill="white" opacity="0.39"/>
<circle cx="1915" cy="968" r="0.9130953120727316" fill="white" opacity="0.61"/>
<circle cx="833" cy="389" r="0.6603538540361997" fill="white" opacity="0.73"/>
<circle cx="725" cy="867" r="1.1988738692845549" fill="white" opacity="0.86"/>
<circle cx="110" cy="201" r="0.6030415459309232" fill="white" opacity="0.77"/>
<circle cx="1639" cy="223" r="0.9227157676644856" fill="white" opacity="0.42"/>
<circle cx="918" cy="287" r="1.217198787718487" fill="white" opacity="0.48"/>
<circle cx="511" cy="154" r="1.2533222665908768" fill="white" opacity="0.86"/>
<circle cx="1127" cy="200" r="0.5860001601922982" fill="white" opacity="0.95"/>
<circle cx="1712" cy="30" r="2.1472936373840774" fill="white" opacity="0.90"/>
<circle cx="1738" cy="484" r="0.7827288880266539" fill="white" opacity="0.62"/>
<circle cx="437" cy="821" r="2.034152871367933" fill="white" opacity="0.41"/>
<circle cx="4" cy="799" r="0.9508451988926583" fill="white" opacity="0.81"/>
<circle cx="931" cy="584" r="1.219112726183277" fill="white" opacity="0.92"/>
<circle cx="1604" cy="996" r="0.7631546029659091" fill="white" opacity="0.49"/>
<circle cx="119" cy="124" r="1.771558452644409" fill="white" opacity="0.34"/>
<circle cx="1196" cy="976" r="1.3548456509631732" fill="white" opacity="0.85"/>
<circle cx="322" cy="116" r="2.133324135566566" fill="white" opacity="0.35"/>
<circle cx="380" cy="140" r="1.5115596809650471" fill="white" opacity="0.74"/>
<circle cx="481" cy="826" r="0.7038072437101112" fill="white" opacity="0.88"/>
<circle cx="504" cy="81" r="1.5529485675645753" fill="white" opacity="0.57"/>
<circle cx="1195" cy="1070" r="1.037828738160436" fill="white" opacity="0.47"/>
<circle cx="1371" cy="643" r="0.9057661194469383" fill="white" opacity="0.56"/>
<circle cx="1375" cy="614" r="1.2772817733697686" fill="white" opacity="0.90"/>
<circle cx="1916" cy="148" r="0.5158362767032189" fill="white" opacity="0.70"/>
<circle cx="1153" cy="204" r="0.6245432258693762" fill="white" opacity="0.44"/>
<circle cx="543" cy="271" r="2.0865409425893056" fill="white" opacity="0.87"/>
<circle cx="1800" cy="500" r="1.1281960508561029" fill="white" opacity="0.40"/>
<circle cx="1707" cy="619" r="1.5398522017341154" fill="white" opacity="0.94"/>
<circle cx="1339" cy="16" r="1.635367446311392" fill="white" opacity="0.66"/>
<circle cx="1908" cy="212" r="2.096181006676077" fill="white" opacity="0.39"/>
<circle cx="236" cy="219" r="1.7621083627676979" fill="white" opacity="0.40"/>
<circle cx="577" cy="431" r="1.7199407181359565" fill="white" opacity="0.43"/>
<circle cx="1298" cy="540" r="1.3591953987665784" fill="white" opacity="0.46"/>
<circle cx="1859" cy="104" r="0.6569073951116469" fill="white" opacity="0.58"/>
<circle cx="566" cy="90" r="0.5060276714492299" fill="white" opacity="0.80"/>
<circle cx="1304" cy="536" r="0.7746893596656065" fill="white" opacity="0.59"/>
<circle cx="1445" cy="875" r="1.453541670117069" fill="white" opacity="0.37"/>
<circle cx="1808" cy="305" r="1.427503491649388" fill="white" opacity="0.84"/>
<circle cx="1192" cy="303" r="1.230637411897312" fill="white" opacity="0.33"/>
<circle cx="746" cy="81" r="2.028171882095007" fill="white" opacity="0.44"/>
<circle cx="511" cy="210" r="1.1012536788448513" fill="white" opacity="0.66"/>
<circle cx="1791" cy="832" r="2.1555229384833914" fill="white" opacity="0.79"/>
<circle cx="1895" cy="484" r="1.9698296835739388" fill="white" opacity="0.93"/>
<circle cx="1660" cy="362" r="1.9984075479276515" fill="white" opacity="0.32"/>
<circle cx="1508" cy="680" r="1.830057043450974" fill="white" opacity="0.57"/>
<circle cx="1371" cy="508" r="0.9535697063106026" fill="white" opacity="0.81"/>
<circle cx="221" cy="783" r="1.9826835309403528" fill="white" opacity="0.86"/>
<circle cx="455" cy="408" r="1.8881972295147793" fill="white" opacity="0.60"/>
<circle cx="625" cy="466" r="0.8789700302498753" fill="white" opacity="0.73"/>
<circle cx="816" cy="672" r="0.9736252037391067" fill="white" opacity="0.35"/>
<circle cx="1583" cy="571" r="1.096948419440679" fill="white" opacity="0.63"/>
<circle cx="1391" cy="678" r="2.0967031385520167" fill="white" opacity="0.37"/>
<circle cx="534" cy="365" r="1.4870025473558033" fill="white" opacity="0.94"/>
<circle cx="78" cy="222" r="1.514171133479166" fill="white" opacity="0.52"/>
<circle cx="1610" cy="642" r="1.2418696025800338" fill="white" opacity="0.94"/>
<circle cx="236" cy="788" r="2.0291580459490395" fill="white" opacity="0.42"/>
<circle cx="90" cy="893" r="0.5028751729716701" fill="white" opacity="0.90"/>
<circle cx="1102" cy="403" r="1.1191765020281492" fill="white" opacity="0.35"/>
<circle cx="1360" cy="676" r="1.5593641969088956" fill="white" opacity="0.73"/>
<circle cx="255" cy="615" r="1.3621082568599576" fill="white" opacity="0.73"/>
<circle cx="668" cy="824" r="1.6852543041304786" fill="white" opacity="0.66"/>
<circle cx="392" cy="861" r="1.6303800381617117" fill="white" opacity="0.55"/>
<circle cx="1532" cy="356" r="1.546375357117347" fill="white" opacity="0.50"/>
<circle cx="1122" cy="0" r="1.0165874137562017" fill="white" opacity="0.44"/>
<circle cx="1609" cy="659" r="1.2904799234199242" fill="white" opacity="0.59"/>
<circle cx="437" cy="1046" r="1.3044165160458547" fill="white" opacity="0.89"/>
<circle cx="1630" cy="347" r="1.6200462664973172" fill="white" opacity="0.48"/>
<circle cx="1359" cy="686" r="0.6587582401284565" fill="white" opacity="0.92"/>
<circle cx="481" cy="635" r="0.8818891321953901" fill="white" opacity="0.43"/>
<circle cx="50" cy="94" r="0.9162323249331953" fill="white" opacity="0.61"/>
<circle cx="1740" cy="149" r="1.2742074862461517" fill="white" opacity="0.88"/>
<circle cx="1178" cy="398" r="1.7211880563482809" fill="white" opacity="0.55"/>
<circle cx="818" cy="499" r="0.750871286655207" fill="white" opacity="0.75"/>
<circle cx="1828" cy="218" r="1.8233146915044527" fill="white" opacity="0.44"/>
<circle cx="1646" cy="1060" r="1.2897348037762288" fill="white" opacity="0.66"/>
<circle cx="1878" cy="248" r="1.2759851032992935" fill="white" opacity="0.82"/>
<circle cx="1367" cy="649" r="2.1150673343533652" fill="white" opacity="0.88"/>
<circle cx="1254" cy="1033" r="1.2254592866597145" fill="white" opacity="0.89"/>
<circle cx="913" cy="325" r="1.7642142516712944" fill="white" opacity="0.61"/>
<circle cx="530" cy="506" r="1.9277669093312655" fill="white" opacity="0.48"/>
<circle cx="1592" cy="1067" r="1.3238149290194536" fill="white" opacity="0.46"/>
<circle cx="900" cy="158" r="1.713026266438796" fill="white" opacity="0.45"/>
<circle cx="687" cy="654" r="2.0181456157435385" fill="white" opacity="0.35"/>
<circle cx="308" cy="473" r="1.1511599971332749" fill="white" opacity="0.40"/>
<circle cx="438" cy="131" r="1.2052754230269709" fill="white" opacity="0.52"/>
<circle cx="954" cy="851" r="0.6058517079920951" fill="white" opacity="0.84"/>
<circle cx="797" cy="40" r="1.9564444549166884" fill="white" opacity="0.80"/>
<circle cx="779" cy="976" r="0.5100233420927882" fill="white" opacity="0.53"/>
<circle cx="1543" cy="798" r="1.950861515967478" fill="white" opacity="0.92"/>
<circle cx="858" cy="451" r="1.3299901118354258" fill="white" opacity="0.48"/>
<circle cx="994" cy="59" r="1.1610572455184176" fill="white" opacity="0.73"/>
<circle cx="1634" cy="828" r="1.731108341966391" fill="white" opacity="0.85"/>
<circle cx="1883" cy="261" r="2.1672273617821696" fill="white" opacity="0.65"/>
<circle cx="1857" cy="806" r="1.5062177185674486" fill="white" opacity="0.73"/>
<circle cx="171" cy="877" r="0.7306891282919592" fill="white" opacity="0.60"/>
<circle cx="102" cy="532" r="1.1444765691198373" fill="white" opacity="0.44"/>
<circle cx="669" cy="691" r="1.7940905034198462" fill="white" opacity="0.55"/>
<circle cx="1540" cy="863" r="0.928861604030047" fill="white" opacity="0.35"/>
<circle cx="39" cy="106" r="2.199843308465656" fill="white" opacity="0.53"/>
<circle cx="1331" cy="140" r="1.8280961843385215" fill="white" opacity="0.72"/>
<circle cx="1544" cy="63" r="2.114339945617181" fill="white" opacity="0.43"/>
<circle cx="41" cy="312" r="0.9055264012111399" fill="white" opacity="0.61"/>
<circle cx="234" cy="446" r="1.2905577718398753" fill="white" opacity="0.47"/>
<circle cx="755" cy="343" r="1.5300175773525293" fill="white" opacity="0.93"/>
<circle cx="1471" cy="234" r="1.8222462064982357" fill="white" opacity="0.41"/>
<circle cx="637" cy="221" r="1.4837640452657141" fill="white" opacity="0.90"/>
<circle cx="1179" cy="768" r="1.1743125505782666" fill="white" opacity="0.76"/>
<circle cx="155" cy="497" r="0.6732322192581601" fill="white" opacity="0.80"/>
<circle cx="1741" cy="247" r="1.8535862682203605" fill="white" opacity="0.67"/>
<circle cx="84" cy="711" r="1.4056669170278506" fill="white" opacity="0.73"/>
<circle cx="141" cy="1036" r="1.600823531896569" fill="white" opacity="0.31"/>
<circle cx="860" cy="1003" r="0.6794160800947976" fill="white" opacity="0.92"/>
<circle cx="1301" cy="941" r="1.702424694300331" fill="white" opacity="0.58"/>
<circle cx="1502" cy="1068" r="2.141305343104732" fill="white" opacity="0.48"/>
<circle cx="1655" cy="990" r="1.2902854117786635" fill="white" opacity="0.84"/>
<circle cx="1213" cy="549" r="1.047917791067901" fill="white" opacity="0.46"/>
<circle cx="1914" cy="177" r="0.9741780236271993" fill="white" opacity="0.59"/>
<circle cx="1536" cy="951" r="1.4687443959531479" fill="white" opacity="0.73"/>
<circle cx="688" cy="58" r="1.3403210561470673" fill="white" opacity="0.51"/>
<circle cx="998" cy="434" r="1.103202442499362" fill="white" opacity="0.47"/>
<circle cx="572" cy="565" r="1.4448447474632924" fill="white" opacity="0.64"/>
<circle cx="391" cy="175" r="0.910305285633556" fill="white" opacity="0.56"/>
<circle cx="1137" cy="492" r="1.6740358770590893" fill="white" opacity="0.72"/>
<circle cx="1005" cy="917" r="1.84798587582494" fill="white" opacity="0.36"/>
<circle cx="453" cy="828" r="1.6760381640018434" fill="white" opacity="0.50"/>
<circle cx="1191" cy="755" r="1.3045428308911922" fill="white" opacity="0.65"/>
<circle cx="871" cy="677" r="1.098077896944086" fill="white" opacity="0.59"/>
<circle cx="627" cy="514" r="0.8919146702074632" fill="white" opacity="0.77"/>
<circle cx="646" cy="244" r="1.762897808186477" fill="white" opacity="0.92"/>

  <!-- Logo watermark -->
  <g transform="translate(880, 460)" opacity="0.07">
    <polygon points="80,0 160,140 0,140" fill="#8b5cf6"/>
  </g>
  <!-- Subtle grid -->
  <g opacity="0.025" stroke="white" stroke-width="0.5">
    <line x1="0" y1="0" x2="0" y2="1080"/><line x1="120" y1="0" x2="120" y2="1080"/><line x1="240" y1="0" x2="240" y2="1080"/><line x1="360" y1="0" x2="360" y2="1080"/><line x1="480" y1="0" x2="480" y2="1080"/><line x1="600" y1="0" x2="600" y2="1080"/><line x1="720" y1="0" x2="720" y2="1080"/><line x1="840" y1="0" x2="840" y2="1080"/><line x1="960" y1="0" x2="960" y2="1080"/><line x1="1080" y1="0" x2="1080" y2="1080"/><line x1="1200" y1="0" x2="1200" y2="1080"/><line x1="1320" y1="0" x2="1320" y2="1080"/><line x1="1440" y1="0" x2="1440" y2="1080"/><line x1="1560" y1="0" x2="1560" y2="1080"/><line x1="1680" y1="0" x2="1680" y2="1080"/><line x1="1800" y1="0" x2="1800" y2="1080"/>
    <line x1="0" y1="0" x2="1920" y2="0"/><line x1="0" y1="120" x2="1920" y2="120"/><line x1="0" y1="240" x2="1920" y2="240"/><line x1="0" y1="360" x2="1920" y2="360"/><line x1="0" y1="480" x2="1920" y2="480"/><line x1="0" y1="600" x2="1920" y2="600"/><line x1="0" y1="720" x2="1920" y2="720"/><line x1="0" y1="840" x2="1920" y2="840"/><line x1="0" y1="960" x2="1920" y2="960"/>
  </g>
</svg>